<svg width="71" height="58" viewBox="0 0 71 58" fill="none" xmlns="http://www.w3.org/2000/svg">
<g id="Logo">
<path id="Vector" d="M9.31034 38.1412C9.92581 38.1412 10.4248 33.9274 10.4248 28.7294C10.4248 23.5315 9.92581 19.3177 9.31034 19.3177C8.69486 19.3177 8.19592 23.5315 8.19592 28.7294C8.19592 33.9274 8.69486 38.1412 9.31034 38.1412Z" fill="#A7C080"/>
<path id="Vector_2" d="M12.2727 39.1869C12.9583 39.1869 13.5141 34.5049 13.5141 28.7294C13.5141 22.9539 12.9583 18.2719 12.2727 18.2719C11.5871 18.2719 11.0313 22.9539 11.0313 28.7294C11.0313 34.5049 11.5871 39.1869 12.2727 39.1869Z" fill="#A7C080"/>
<path id="Vector_3" d="M15.5737 40.3591C16.3294 40.3591 16.942 35.1523 16.942 28.7294C16.942 22.3066 16.3294 17.0997 15.5737 17.0997C14.818 17.0997 14.2053 22.3066 14.2053 28.7294C14.2053 35.1523 14.818 40.3591 15.5737 40.3591Z" fill="#A7C080"/>
<path id="Vector_4" d="M19.2273 41.6462C20.0687 41.6462 20.7508 35.8632 20.7508 28.7294C20.7508 21.5957 20.0687 15.8127 19.2273 15.8127C18.3858 15.8127 17.7038 21.5957 17.7038 28.7294C17.7038 35.8632 18.3858 41.6462 19.2273 41.6462Z" fill="#A7C080"/>
<path id="Vector_5" d="M23.29 43.0826C24.2248 43.0826 24.9828 36.6564 24.9828 28.7294C24.9828 20.8024 24.2248 14.3762 23.29 14.3762C22.3551 14.3762 21.5972 20.8024 21.5972 28.7294C21.5972 36.6564 22.3551 43.0826 23.29 43.0826Z" fill="#A7C080"/>
<path id="Vector_6" d="M27.8182 44.68C28.8543 44.68 29.6944 37.5387 29.6944 28.7294C29.6944 19.9202 28.8543 12.7788 27.8182 12.7788C26.782 12.7788 25.942 19.9202 25.942 28.7294C25.942 37.5387 26.782 44.68 27.8182 44.68Z" fill="#A7C080"/>
<path id="Vector_7" d="M32.8401 46.4497C33.9932 46.4497 34.9279 38.516 34.9279 28.7294C34.9279 18.9428 33.9932 11.0091 32.8401 11.0091C31.687 11.0091 30.7523 18.9428 30.7523 28.7294C30.7523 38.516 31.687 46.4497 32.8401 46.4497Z" fill="#A7C080"/>
<path id="Vector_8" d="M38.4122 48.4148C39.6978 48.4148 40.7398 39.6013 40.7398 28.7294C40.7398 17.8575 39.6978 9.04402 38.4122 9.04402C37.1267 9.04402 36.0846 17.8575 36.0846 28.7294C36.0846 39.6013 37.1267 48.4148 38.4122 48.4148Z" fill="#A7C080"/>
<path id="Vector_9" d="M44.605 50.6097C46.0308 50.6097 47.1865 40.8136 47.1865 28.7294C47.1865 16.6452 46.0308 6.84909 44.605 6.84909C43.1793 6.84909 42.0235 16.6452 42.0235 28.7294C42.0235 40.8136 43.1793 50.6097 44.605 50.6097Z" fill="#A7C080"/>
<path id="Vector_10" d="M51.489 53.0345C53.0705 53.0345 54.3526 42.1527 54.3526 28.7294C54.3526 15.3061 53.0705 4.42433 51.489 4.42433C49.9075 4.42433 48.6254 15.3061 48.6254 28.7294C48.6254 42.1527 49.9075 53.0345 51.489 53.0345Z" fill="#A7C080"/>
<path id="Vector_11" d="M59.1348 55.7351C60.8956 55.7351 62.3229 43.6442 62.3229 28.7294C62.3229 13.8146 60.8956 1.72377 59.1348 1.72377C57.374 1.72377 55.9467 13.8146 55.9467 28.7294C55.9467 43.6442 57.374 55.7351 59.1348 55.7351Z" fill="#A7C080"/>
</g>
</svg>
